<svg width="287" height="360" viewBox="0 0 287 360" fill="none" xmlns="http://www.w3.org/2000/svg">
<rect x="0.5" width="286" height="360" rx="14" fill="#A6A6A6"/>
<rect x="12.5" y="12" width="50" height="27" rx="10" fill="#3D3D3D"/>
<path d="M25.0039 27.0879V26.2266H27.9336V27.0879H25.0039ZM30.207 21.2344H31.1387V30H30.1016V22.3184C29.707 22.5762 29.2246 22.7969 28.6543 22.9805V22.002C28.7168 21.9746 28.8438 21.9199 29.0352 21.8379C29.2266 21.7559 29.3691 21.6934 29.4629 21.6504C29.5605 21.6074 29.6816 21.5469 29.8262 21.4688C29.9707 21.3906 30.0977 21.3125 30.207 21.2344ZM35.0117 30.1348C34.4883 30.1348 34.0215 30.0664 33.6113 29.9297C33.2051 29.793 32.9082 29.6348 32.7207 29.4551L33.0488 28.5938C33.5996 29.0273 34.2559 29.2441 35.0176 29.2441C35.6035 29.2441 36.0684 29.0996 36.4121 28.8105C36.7598 28.5176 36.9336 28.1094 36.9336 27.5859C36.9336 27.3008 36.8887 27.0527 36.7988 26.8418C36.7129 26.627 36.5957 26.4551 36.4473 26.3262C36.3027 26.1934 36.1152 26.0879 35.8848 26.0098C35.6582 25.9277 35.4238 25.8711 35.1816 25.8398C34.9434 25.8047 34.666 25.7832 34.3496 25.7754C34.3105 25.7754 34.252 25.7754 34.1738 25.7754C34.0957 25.7715 34.0371 25.7695 33.998 25.7695V24.8965H34.291C34.5645 24.8926 34.8047 24.8789 35.0117 24.8555C35.2227 24.8281 35.4316 24.7812 35.6387 24.7148C35.8496 24.6484 36.0234 24.5605 36.1602 24.4512C36.2969 24.3418 36.4082 24.1953 36.4941 24.0117C36.5801 23.8281 36.623 23.6113 36.623 23.3613C36.623 22.4238 36.0859 21.9551 35.0117 21.9551C34.625 21.9551 34.2617 22.0117 33.9219 22.125C33.582 22.2383 33.291 22.3906 33.0488 22.582L32.7207 21.7266C33.3027 21.2852 34.1406 21.0645 35.2344 21.0645C35.6758 21.0645 36.084 21.1465 36.459 21.3105C36.834 21.4707 37.1426 21.7188 37.3848 22.0547C37.627 22.3867 37.748 22.7773 37.748 23.2266C37.748 23.7734 37.6133 24.2227 37.3438 24.5742C37.0742 24.9258 36.6953 25.1777 36.207 25.3301C36.7539 25.4473 37.1816 25.7031 37.4902 26.0977C37.8027 26.4922 37.959 26.9922 37.959 27.5977C37.959 28.3672 37.6836 28.9824 37.1328 29.4434C36.582 29.9043 35.875 30.1348 35.0117 30.1348ZM46.959 25.582C47.6191 25.582 48.1289 25.791 48.4883 26.209C48.8477 26.623 49.0273 27.166 49.0273 27.8379C49.0273 28.4941 48.8438 29.0332 48.4766 29.4551C48.1133 29.877 47.6074 30.0879 46.959 30.0879C46.3027 30.0879 45.7949 29.8789 45.4355 29.4609C45.0762 29.0391 44.8965 28.498 44.8965 27.8379C44.8965 27.1777 45.0781 26.6367 45.4414 26.2148C45.8047 25.793 46.3105 25.582 46.959 25.582ZM47.9316 26.707C47.7012 26.4023 47.377 26.25 46.959 26.25C46.541 26.25 46.2148 26.4043 45.9805 26.7129C45.75 27.0215 45.6348 27.3965 45.6348 27.8379C45.6348 28.2871 45.75 28.6641 45.9805 28.9688C46.2148 29.2734 46.541 29.4258 46.959 29.4258C47.377 29.4258 47.7012 29.2715 47.9316 28.9629C48.166 28.6543 48.2832 28.2793 48.2832 27.8379C48.2832 27.3887 48.166 27.0117 47.9316 26.707ZM40.9238 30.0234L45.582 21.4336H46.5312L41.7148 30.0234H40.9238ZM41.0352 21.2754C41.6016 21.2754 42.0547 21.4883 42.3945 21.9141C42.7383 22.3359 42.9102 22.875 42.9102 23.5312C42.9102 24.1719 42.7383 24.6992 42.3945 25.1133C42.0508 25.5273 41.5977 25.7344 41.0352 25.7344C40.4688 25.7344 40.0176 25.5293 39.6816 25.1191C39.3457 24.7051 39.1777 24.1758 39.1777 23.5312C39.1777 22.8789 39.3457 22.3398 39.6816 21.9141C40.0215 21.4883 40.4727 21.2754 41.0352 21.2754ZM41.0352 21.9258C40.6836 21.9258 40.4102 22.082 40.2148 22.3945C40.0195 22.707 39.9219 23.0859 39.9219 23.5312C39.9219 23.9805 40.0176 24.3477 40.209 24.6328C40.4043 24.9141 40.6797 25.0547 41.0352 25.0547C41.3906 25.0547 41.666 24.9102 41.8613 24.6211C42.0566 24.3281 42.1543 23.9648 42.1543 23.5312C42.1543 23.082 42.0547 22.7031 41.8555 22.3945C41.6562 22.082 41.3828 21.9258 41.0352 21.9258Z" fill="white"/>
</svg>
