<svg width="24" height="17" viewBox="0 0 24 17" fill="none" xmlns="http://www.w3.org/2000/svg">
<path d="M24 11.1562V13.8125L11.2969 15.1406L0 13.8125V11.1562L11.2969 9.82812L24 11.1562Z" fill="#3D3D3D"/>
<path d="M12 15.0668L24 13.8125V11.1562L12 9.90186V15.0668Z" fill="#121212"/>
<path d="M24 5.84375V8.5L17.625 9.82812L10.5938 8.5V5.84375L17.625 4.51562L24 5.84375Z" fill="#121212"/>
<path d="M24 8.5V11.1562H0V8.5L6.375 7.17188L12 8.5H24Z" fill="#F3F5F9"/>
<path d="M12 8.35254V11.1563H24V8.50009H12V8.35254Z" fill="#E1E6F0"/>
<path d="M0 13.8125H24V16.4688H0V13.8125Z" fill="#F3F5F9"/>
<path d="M24 0.53125V3.1875L17.625 4.51562L10.5938 3.1875V1.85938C10.5938 1.12585 11.2233 0.53125 12 0.53125H24Z" fill="#121212"/>
<path d="M10.5938 3.1875H24V5.84375H10.5938V3.1875Z" fill="#E1E6F0"/>
<path d="M12 8.5H0V0.53125H12V8.5Z" fill="#A6A6A6"/>
<path d="M2.21582 3.18726L3.20994 2.24837L4.20406 3.18726L3.20994 4.12615L2.21582 3.18726Z" fill="#F3F5F9"/>
<path d="M5.02808 3.1875L6.0222 2.24861L7.01631 3.1875L6.0222 4.12639L5.02808 3.1875Z" fill="#F3F5F9"/>
<path d="M7.84033 3.18774L8.83445 2.24885L9.82857 3.18774L8.83445 4.12663L7.84033 3.18774Z" fill="#F3F5F9"/>
<path d="M3.62158 5.84326L4.6157 4.90437L5.60982 5.84326L4.6157 6.78215L3.62158 5.84326Z" fill="#F3F5F9"/>
<path d="M6.43384 5.84375L7.42796 4.90486L8.42208 5.84375L7.42796 6.78264L6.43384 5.84375Z" fill="#F3F5F9"/>
<path d="M12 13.8125H24V16.4688H12V13.8125Z" fill="#E1E6F0"/>
</svg>
