<svg width="392" height="240" viewBox="0 0 392 240" fill="none" xmlns="http://www.w3.org/2000/svg">
<rect width="392" height="240" rx="14" fill="#A6A6A6"/>
<path d="M20.8691 210V194.112H22.7383V208.346H29.7314L29.667 210H20.8691ZM33.6309 198.216V210H31.8262V198.216H33.6309ZM33.6309 193.93V196.057H31.8262V193.93H33.6309ZM40.0332 210L35.4678 198.216H37.3906L39.9902 205.22C39.9902 205.22 40.3483 206.215 41.0645 208.206C41.3079 207.44 41.6445 206.451 42.0742 205.241C42.6185 203.716 43.4635 201.374 44.6094 198.216H46.5215L41.9883 210H40.0332ZM50.2168 198.216V210H48.4121V198.216H50.2168ZM50.2168 193.93V196.057H48.4121V193.93H50.2168ZM53.6006 210V198.216H55.1045L55.3301 199.902C55.7956 199.322 56.3757 198.857 57.0703 198.506C57.7721 198.148 58.5277 197.969 59.3369 197.969C60.6976 197.969 61.7038 198.352 62.3555 199.118C63.0072 199.877 63.333 201.048 63.333 202.631V210H61.5391C61.5391 205.273 61.5355 202.742 61.5283 202.405C61.4997 201.403 61.2956 200.669 60.916 200.203C60.5436 199.738 59.917 199.505 59.0361 199.505C58.1123 199.505 57.3424 199.727 56.7266 200.171C56.1107 200.615 55.7096 201.191 55.5234 201.9C55.4518 202.38 55.416 202.932 55.416 203.555V210H53.6006ZM70.8955 208.464C71.5042 208.464 72.0378 208.356 72.4961 208.142C72.9544 207.927 73.3125 207.63 73.5703 207.25C73.8281 206.87 74.0179 206.448 74.1396 205.982C74.2686 205.517 74.333 205.008 74.333 204.457V203.587C74.333 203.014 74.2686 202.488 74.1396 202.008C74.0107 201.521 73.8102 201.088 73.5381 200.708C73.2731 200.321 72.915 200.021 72.4639 199.806C72.0199 199.591 71.5007 199.483 70.9062 199.483C70.4121 199.483 69.9609 199.576 69.5527 199.763C69.1517 199.949 68.8187 200.196 68.5537 200.504C68.2959 200.805 68.0739 201.159 67.8877 201.567C67.7087 201.968 67.5798 202.377 67.501 202.792C67.4222 203.207 67.3828 203.626 67.3828 204.049C67.3828 204.464 67.4258 204.876 67.5117 205.284C67.5977 205.692 67.7337 206.09 67.9199 206.477C68.1061 206.863 68.3317 207.203 68.5967 207.497C68.8617 207.784 69.1911 208.016 69.585 208.195C69.986 208.374 70.4229 208.464 70.8955 208.464ZM68.1348 215.393L67.9736 213.771H70.165C70.7738 213.771 71.3037 213.728 71.7549 213.642C72.2061 213.556 72.582 213.412 72.8828 213.212C73.1836 213.019 73.4271 212.8 73.6133 212.557C73.7995 212.32 73.9391 212.009 74.0322 211.622C74.1325 211.243 74.1969 210.863 74.2256 210.483C74.2614 210.111 74.2793 209.653 74.2793 209.108V208.066C73.8496 208.682 73.3519 209.159 72.7861 209.495C72.2204 209.825 71.5007 209.989 70.627 209.989C69.9538 209.989 69.3307 209.875 68.7578 209.646C68.1921 209.409 67.7122 209.098 67.3184 208.711C66.9316 208.324 66.5986 207.877 66.3193 207.368C66.0472 206.86 65.8467 206.333 65.7178 205.789C65.596 205.245 65.5352 204.697 65.5352 204.146C65.5352 203.286 65.639 202.491 65.8467 201.761C66.0615 201.03 66.3766 200.379 66.792 199.806C67.2074 199.233 67.7516 198.785 68.4248 198.463C69.1051 198.133 69.8822 197.969 70.7559 197.969C71.5293 197.969 72.2025 198.119 72.7754 198.42C73.3555 198.714 73.8747 199.168 74.333 199.784V198.216H76.084V209.151C76.084 209.653 76.0697 210.09 76.041 210.462C76.0195 210.841 75.9587 211.26 75.8584 211.719C75.7653 212.177 75.6364 212.571 75.4717 212.9C75.307 213.23 75.0742 213.559 74.7734 213.889C74.4798 214.225 74.1253 214.494 73.71 214.694C73.3018 214.902 72.7933 215.07 72.1846 215.199C71.5758 215.328 70.8883 215.393 70.1221 215.393H68.1348ZM86.5254 195.595V200.966C86.819 200.966 87.4242 200.973 88.3408 200.987C89.2646 201.002 89.9772 201.009 90.4785 201.009C91.8464 201.009 92.7988 200.783 93.3359 200.332C93.873 199.874 94.1416 199.15 94.1416 198.162C94.1416 197.296 93.8838 196.651 93.3682 196.229C92.8525 195.806 91.9896 195.595 90.7793 195.595H86.5254ZM96.709 210H94.5605L92.3691 205.016C91.7747 203.676 91.3952 202.871 91.2305 202.599C90.7077 202.634 90.0882 202.652 89.3721 202.652L86.5254 202.566V210H84.624V193.93H89.7051C90.2923 193.93 90.8115 193.944 91.2627 193.973C91.7139 194.001 92.1615 194.055 92.6055 194.134C93.0566 194.205 93.4469 194.309 93.7764 194.445C94.1058 194.574 94.4137 194.746 94.7002 194.961C94.9867 195.169 95.2158 195.419 95.3877 195.713C95.5667 196.007 95.7064 196.357 95.8066 196.766C95.9069 197.167 95.957 197.621 95.957 198.13C95.957 199.132 95.6921 199.995 95.1621 200.719C94.6393 201.442 93.8945 201.943 92.9277 202.223C92.9277 202.237 92.9993 202.366 93.1426 202.609C93.2858 202.853 93.4541 203.154 93.6475 203.512C93.848 203.863 94.002 204.156 94.1094 204.393L96.709 210ZM100.286 204.135C100.286 205.531 100.594 206.652 101.21 207.497C101.833 208.335 102.739 208.754 103.928 208.754C105.102 208.754 105.987 208.335 106.581 207.497C107.183 206.659 107.483 205.531 107.483 204.113C107.483 202.674 107.186 201.542 106.592 200.719C106.005 199.888 105.106 199.473 103.896 199.473C102.721 199.473 101.826 199.895 101.21 200.74C100.594 201.585 100.286 202.717 100.286 204.135ZM109.342 204.103C109.342 205.929 108.855 207.411 107.881 208.55C106.907 209.681 105.561 210.247 103.842 210.247C102.188 210.247 100.87 209.674 99.8887 208.528C98.9147 207.382 98.4277 205.911 98.4277 204.113C98.4277 202.28 98.9183 200.798 99.8994 199.666C100.881 198.535 102.227 197.969 103.938 197.969C105.621 197.969 106.943 198.538 107.902 199.677C108.862 200.808 109.342 202.284 109.342 204.103ZM113.198 204.135C113.198 205.531 113.506 206.652 114.122 207.497C114.745 208.335 115.651 208.754 116.84 208.754C118.014 208.754 118.899 208.335 119.493 207.497C120.095 206.659 120.396 205.531 120.396 204.113C120.396 202.674 120.098 201.542 119.504 200.719C118.917 199.888 118.018 199.473 116.808 199.473C115.633 199.473 114.738 199.895 114.122 200.74C113.506 201.585 113.198 202.717 113.198 204.135ZM122.254 204.103C122.254 205.929 121.767 207.411 120.793 208.55C119.819 209.681 118.473 210.247 116.754 210.247C115.1 210.247 113.782 209.674 112.801 208.528C111.827 207.382 111.34 205.911 111.34 204.113C111.34 202.28 111.83 200.798 112.812 199.666C113.793 198.535 115.139 197.969 116.851 197.969C118.534 197.969 119.855 198.538 120.814 199.677C121.774 200.808 122.254 202.284 122.254 204.103ZM139.764 210V203.866C139.764 203.293 139.749 202.813 139.721 202.427C139.699 202.04 139.642 201.646 139.549 201.245C139.463 200.844 139.338 200.529 139.173 200.3C139.015 200.063 138.793 199.874 138.507 199.73C138.22 199.58 137.877 199.505 137.476 199.505C136.688 199.505 136.015 199.716 135.456 200.139C134.905 200.561 134.511 201.156 134.274 201.922C134.21 202.438 134.178 202.989 134.178 203.576V210H132.384V203.673C132.384 203.143 132.366 202.685 132.33 202.298C132.294 201.904 132.226 201.524 132.126 201.159C132.026 200.787 131.89 200.486 131.718 200.257C131.553 200.028 131.331 199.845 131.052 199.709C130.772 199.573 130.439 199.505 130.053 199.505C129.193 199.505 128.47 199.723 127.883 200.16C127.303 200.597 126.912 201.177 126.712 201.9C126.647 202.452 126.615 203.05 126.615 203.694V210H124.821C124.807 202.631 124.8 198.703 124.8 198.216H126.304L126.529 199.902C126.887 199.358 127.396 198.9 128.055 198.527C128.714 198.155 129.462 197.969 130.3 197.969C130.737 197.969 131.138 198.015 131.503 198.108C131.875 198.194 132.183 198.305 132.427 198.441C132.677 198.577 132.899 198.742 133.093 198.936C133.286 199.122 133.437 199.308 133.544 199.494C133.651 199.673 133.741 199.863 133.812 200.063C134.672 198.667 135.986 197.969 137.755 197.969C139.065 197.969 140.025 198.345 140.634 199.097C141.25 199.841 141.558 200.948 141.558 202.416V210H139.764ZM151.548 210H149.689V194.112H158.509L158.434 195.756H151.548V201.331H158.111V202.91H151.548V210ZM160.142 206.068V198.216H161.946V206.09C161.946 206.605 162.018 207.042 162.161 207.4C162.312 207.758 162.523 208.038 162.795 208.238C163.074 208.432 163.386 208.571 163.729 208.657C164.08 208.743 164.481 208.786 164.933 208.786C165.864 208.786 166.587 208.582 167.103 208.174C167.625 207.766 167.887 207.071 167.887 206.09V198.216H169.691V206.068C169.691 206.67 169.605 207.211 169.434 207.69C169.262 208.17 169.029 208.571 168.735 208.894C168.449 209.209 168.102 209.47 167.693 209.678C167.285 209.885 166.852 210.036 166.394 210.129C165.942 210.222 165.455 210.269 164.933 210.269C164.417 210.269 163.93 210.222 163.472 210.129C163.013 210.036 162.576 209.885 162.161 209.678C161.753 209.463 161.398 209.198 161.098 208.883C160.804 208.561 160.571 208.16 160.399 207.68C160.228 207.2 160.142 206.663 160.142 206.068ZM177.651 198.108C177.974 198.108 178.267 198.13 178.532 198.173L178.468 199.827C178.138 199.77 177.852 199.741 177.608 199.741C176.606 199.741 175.789 200.092 175.159 200.794C174.536 201.489 174.225 202.352 174.225 203.383V210H172.431C172.424 202.767 172.42 198.839 172.42 198.216H173.913L174.085 200.332C174.493 199.666 175.012 199.129 175.643 198.721C176.273 198.312 176.942 198.108 177.651 198.108ZM180.38 210V198.216H181.884L182.109 199.902C182.575 199.322 183.155 198.857 183.85 198.506C184.551 198.148 185.307 197.969 186.116 197.969C187.477 197.969 188.483 198.352 189.135 199.118C189.786 199.877 190.112 201.048 190.112 202.631V210H188.318C188.318 205.273 188.315 202.742 188.308 202.405C188.279 201.403 188.075 200.669 187.695 200.203C187.323 199.738 186.696 199.505 185.815 199.505C184.892 199.505 184.122 199.727 183.506 200.171C182.89 200.615 182.489 201.191 182.303 201.9C182.231 202.38 182.195 202.932 182.195 203.555V210H180.38ZM195.215 198.216V210H193.41V198.216H195.215ZM195.215 193.93V196.057H193.41V193.93H195.215ZM202.358 210.215C201.198 210.215 200.375 209.932 199.888 209.366C199.401 208.8 199.143 207.887 199.114 206.627V199.548H197.363L197.438 198.366L199.104 198.216L199.716 195.52L200.897 195.477V198.216H204.174V199.548H200.897V206.305C200.897 207.2 201.034 207.83 201.306 208.195C201.578 208.561 202.043 208.743 202.702 208.743C202.938 208.743 203.451 208.686 204.238 208.571L204.313 209.989C203.461 210.14 202.81 210.215 202.358 210.215ZM205.817 206.068V198.216H207.622V206.09C207.622 206.605 207.694 207.042 207.837 207.4C207.987 207.758 208.199 208.038 208.471 208.238C208.75 208.432 209.062 208.571 209.405 208.657C209.756 208.743 210.157 208.786 210.608 208.786C211.539 208.786 212.263 208.582 212.778 208.174C213.301 207.766 213.562 207.071 213.562 206.09V198.216H215.367V206.068C215.367 206.67 215.281 207.211 215.109 207.69C214.938 208.17 214.705 208.571 214.411 208.894C214.125 209.209 213.777 209.47 213.369 209.678C212.961 209.885 212.528 210.036 212.069 210.129C211.618 210.222 211.131 210.269 210.608 210.269C210.093 210.269 209.606 210.222 209.147 210.129C208.689 210.036 208.252 209.885 207.837 209.678C207.429 209.463 207.074 209.198 206.773 208.883C206.48 208.561 206.247 208.16 206.075 207.68C205.903 207.2 205.817 206.663 205.817 206.068ZM223.327 198.108C223.649 198.108 223.943 198.13 224.208 198.173L224.144 199.827C223.814 199.77 223.528 199.741 223.284 199.741C222.282 199.741 221.465 200.092 220.835 200.794C220.212 201.489 219.9 202.352 219.9 203.383V210H218.106C218.099 202.767 218.096 198.839 218.096 198.216H219.589L219.761 200.332C220.169 199.666 220.688 199.129 221.318 198.721C221.949 198.312 222.618 198.108 223.327 198.108ZM232.63 200.396C232.107 199.766 231.387 199.451 230.471 199.451C229.554 199.451 228.806 199.777 228.226 200.429C227.646 201.073 227.305 201.958 227.205 203.082H233.425C233.425 201.915 233.16 201.02 232.63 200.396ZM230.825 210.247C229.114 210.247 227.764 209.703 226.775 208.614C225.794 207.526 225.304 206.036 225.304 204.146C225.304 202.319 225.78 200.84 226.732 199.709C227.685 198.57 228.938 197.99 230.492 197.969C231.953 197.969 233.11 198.47 233.962 199.473C234.821 200.468 235.251 201.8 235.251 203.469C235.251 203.555 235.247 203.712 235.24 203.941C235.24 204.171 235.24 204.335 235.24 204.436H227.151C227.173 205.775 227.517 206.82 228.183 207.572C228.856 208.317 229.758 208.689 230.89 208.689C232.136 208.689 233.385 208.36 234.639 207.701L234.918 209.151C233.722 209.882 232.358 210.247 230.825 210.247Z" fill="white"/>
</svg>
