<svg width="392" height="513" viewBox="0 0 392 513" fill="none" xmlns="http://www.w3.org/2000/svg">
<rect width="392" height="513" rx="14" fill="#A6A6A6"/>
<path d="M22.7275 475.438V481.475H26.0469C27.3932 481.475 28.403 481.228 29.0762 480.733C29.7493 480.232 30.0859 479.455 30.0859 478.402C30.0859 477.307 29.7207 476.54 28.9902 476.104C28.2669 475.66 27.1354 475.438 25.5957 475.438H22.7275ZM22.7275 473.944H26.1328C27.2428 473.944 28.0807 473.751 28.6465 473.364C29.2122 472.978 29.4951 472.29 29.4951 471.302C29.4951 470.306 29.1549 469.622 28.4746 469.25C27.8014 468.87 26.7523 468.681 25.3271 468.681H22.7275V473.944ZM20.8691 467.112H25.4238C27.4648 467.112 28.9759 467.424 29.957 468.047C30.9453 468.67 31.4395 469.662 31.4395 471.022C31.4395 471.223 31.4251 471.424 31.3965 471.624C31.375 471.817 31.3105 472.068 31.2031 472.376C31.1029 472.684 30.9632 472.967 30.7842 473.225C30.6051 473.475 30.3402 473.729 29.9893 473.987C29.6455 474.238 29.2409 474.438 28.7754 474.589C29.8424 474.789 30.6517 475.241 31.2031 475.942C31.7546 476.644 32.0303 477.489 32.0303 478.478C32.0303 479.917 31.5576 481.031 30.6123 481.818C29.6742 482.606 28.2741 483 26.4121 483H20.8691V467.112ZM41.1396 473.396C40.6169 472.766 39.8971 472.451 38.9805 472.451C38.0638 472.451 37.3154 472.777 36.7354 473.429C36.1553 474.073 35.8151 474.958 35.7148 476.082H41.9346C41.9346 474.915 41.6696 474.02 41.1396 473.396ZM39.335 483.247C37.6234 483.247 36.2734 482.703 35.2852 481.614C34.304 480.526 33.8135 479.036 33.8135 477.146C33.8135 475.319 34.2897 473.84 35.2422 472.709C36.1947 471.57 37.4479 470.99 39.002 470.969C40.4629 470.969 41.6195 471.47 42.4717 472.473C43.3311 473.468 43.7607 474.8 43.7607 476.469C43.7607 476.555 43.7572 476.712 43.75 476.941C43.75 477.171 43.75 477.335 43.75 477.436H35.6611C35.6826 478.775 36.0264 479.82 36.6924 480.572C37.3656 481.317 38.2679 481.689 39.3994 481.689C40.6455 481.689 41.8952 481.36 43.1484 480.701L43.4277 482.151C42.2318 482.882 40.8675 483.247 39.335 483.247ZM50.8506 481.7C52.0322 481.7 52.9095 481.321 53.4824 480.562C54.0625 479.802 54.3525 478.717 54.3525 477.307C54.3525 475.717 54.0732 474.521 53.5146 473.719C52.9632 472.91 52.068 472.505 50.8291 472.505C50.2777 472.505 49.7907 472.623 49.3682 472.859C48.9456 473.096 48.6055 473.425 48.3477 473.848C48.0898 474.27 47.8929 474.757 47.7568 475.309C47.6279 475.853 47.5635 476.451 47.5635 477.103C47.5635 478.019 47.6745 478.814 47.8965 479.487C48.1257 480.16 48.4909 480.698 48.9922 481.099C49.4935 481.5 50.113 481.7 50.8506 481.7ZM54.3848 481.292C53.998 481.886 53.4824 482.359 52.8379 482.71C52.1934 483.061 51.4736 483.236 50.6787 483.236C49.1247 483.236 47.9072 482.685 47.0264 481.582C46.1455 480.472 45.7051 478.965 45.7051 477.06C45.7051 475.241 46.1527 473.772 47.0479 472.655C47.943 471.531 49.1426 470.969 50.6465 470.969C51.4271 470.969 52.1611 471.141 52.8486 471.484C53.5433 471.821 54.0625 472.276 54.4062 472.849L54.374 471.828V466.64L56.1465 466.532V483H54.6211L54.3848 481.292ZM64.5576 471.108C64.8799 471.108 65.1735 471.13 65.4385 471.173L65.374 472.827C65.0446 472.77 64.7581 472.741 64.5146 472.741C63.512 472.741 62.6956 473.092 62.0654 473.794C61.4424 474.489 61.1309 475.352 61.1309 476.383V483H59.3369C59.3298 475.767 59.3262 471.839 59.3262 471.216H60.8193L60.9912 473.332C61.3994 472.666 61.9186 472.129 62.5488 471.721C63.179 471.312 63.8486 471.108 64.5576 471.108ZM68.3818 477.135C68.3818 478.531 68.6898 479.652 69.3057 480.497C69.9287 481.335 70.8346 481.754 72.0234 481.754C73.1979 481.754 74.0824 481.335 74.6768 480.497C75.2783 479.659 75.5791 478.531 75.5791 477.113C75.5791 475.674 75.2819 474.542 74.6875 473.719C74.1003 472.888 73.2015 472.473 71.9912 472.473C70.8167 472.473 69.9215 472.895 69.3057 473.74C68.6898 474.585 68.3818 475.717 68.3818 477.135ZM77.4375 477.103C77.4375 478.929 76.9505 480.411 75.9766 481.55C75.0026 482.681 73.6562 483.247 71.9375 483.247C70.2832 483.247 68.9655 482.674 67.9844 481.528C67.0104 480.382 66.5234 478.911 66.5234 477.113C66.5234 475.28 67.014 473.798 67.9951 472.666C68.9762 471.535 70.3226 470.969 72.0342 470.969C73.7171 470.969 75.0384 471.538 75.998 472.677C76.9577 473.808 77.4375 475.284 77.4375 477.103ZM81.2939 477.135C81.2939 478.531 81.6019 479.652 82.2178 480.497C82.8408 481.335 83.7467 481.754 84.9355 481.754C86.11 481.754 86.9945 481.335 87.5889 480.497C88.1904 479.659 88.4912 478.531 88.4912 477.113C88.4912 475.674 88.194 474.542 87.5996 473.719C87.0124 472.888 86.1136 472.473 84.9033 472.473C83.7288 472.473 82.8337 472.895 82.2178 473.74C81.6019 474.585 81.2939 475.717 81.2939 477.135ZM90.3496 477.103C90.3496 478.929 89.8626 480.411 88.8887 481.55C87.9147 482.681 86.5684 483.247 84.8496 483.247C83.1953 483.247 81.8776 482.674 80.8965 481.528C79.9225 480.382 79.4355 478.911 79.4355 477.113C79.4355 475.28 79.9261 473.798 80.9072 472.666C81.8883 471.535 83.2347 470.969 84.9463 470.969C86.6292 470.969 87.9505 471.538 88.9102 472.677C89.8698 473.808 90.3496 475.284 90.3496 477.103ZM107.859 483V476.866C107.859 476.293 107.845 475.813 107.816 475.427C107.795 475.04 107.738 474.646 107.645 474.245C107.559 473.844 107.433 473.529 107.269 473.3C107.111 473.063 106.889 472.874 106.603 472.73C106.316 472.58 105.972 472.505 105.571 472.505C104.784 472.505 104.11 472.716 103.552 473.139C103 473.561 102.606 474.156 102.37 474.922C102.306 475.438 102.273 475.989 102.273 476.576V483H100.479V476.673C100.479 476.143 100.462 475.685 100.426 475.298C100.39 474.904 100.322 474.524 100.222 474.159C100.121 473.787 99.9854 473.486 99.8135 473.257C99.6488 473.028 99.4268 472.845 99.1475 472.709C98.8682 472.573 98.5352 472.505 98.1484 472.505C97.2891 472.505 96.5658 472.723 95.9785 473.16C95.3984 473.597 95.0081 474.177 94.8076 474.9C94.7432 475.452 94.7109 476.05 94.7109 476.694V483H92.917C92.9027 475.631 92.8955 471.703 92.8955 471.216H94.3994L94.625 472.902C94.9831 472.358 95.4915 471.9 96.1504 471.527C96.8092 471.155 97.5576 470.969 98.3955 470.969C98.8324 470.969 99.2334 471.015 99.5986 471.108C99.971 471.194 100.279 471.305 100.522 471.441C100.773 471.577 100.995 471.742 101.188 471.936C101.382 472.122 101.532 472.308 101.64 472.494C101.747 472.673 101.837 472.863 101.908 473.063C102.768 471.667 104.082 470.969 105.851 470.969C107.161 470.969 108.121 471.345 108.729 472.097C109.345 472.841 109.653 473.948 109.653 475.416V483H107.859ZM119.644 483H117.785V467.112H126.604L126.529 468.756H119.644V474.331H126.207V475.91H119.644V483ZM128.237 479.068V471.216H130.042V479.09C130.042 479.605 130.114 480.042 130.257 480.4C130.407 480.758 130.618 481.038 130.891 481.238C131.17 481.432 131.481 481.571 131.825 481.657C132.176 481.743 132.577 481.786 133.028 481.786C133.959 481.786 134.683 481.582 135.198 481.174C135.721 480.766 135.982 480.071 135.982 479.09V471.216H137.787V479.068C137.787 479.67 137.701 480.211 137.529 480.69C137.357 481.17 137.125 481.571 136.831 481.894C136.545 482.209 136.197 482.47 135.789 482.678C135.381 482.885 134.948 483.036 134.489 483.129C134.038 483.222 133.551 483.269 133.028 483.269C132.513 483.269 132.026 483.222 131.567 483.129C131.109 483.036 130.672 482.885 130.257 482.678C129.849 482.463 129.494 482.198 129.193 481.883C128.9 481.561 128.667 481.16 128.495 480.68C128.323 480.2 128.237 479.663 128.237 479.068ZM145.747 471.108C146.069 471.108 146.363 471.13 146.628 471.173L146.563 472.827C146.234 472.77 145.948 472.741 145.704 472.741C144.701 472.741 143.885 473.092 143.255 473.794C142.632 474.489 142.32 475.352 142.32 476.383V483H140.526C140.519 475.767 140.516 471.839 140.516 471.216H142.009L142.181 473.332C142.589 472.666 143.108 472.129 143.738 471.721C144.368 471.312 145.038 471.108 145.747 471.108ZM148.476 483V471.216H149.979L150.205 472.902C150.671 472.322 151.251 471.857 151.945 471.506C152.647 471.148 153.403 470.969 154.212 470.969C155.573 470.969 156.579 471.352 157.23 472.118C157.882 472.877 158.208 474.048 158.208 475.631V483H156.414C156.414 478.273 156.41 475.742 156.403 475.405C156.375 474.403 156.171 473.669 155.791 473.203C155.419 472.738 154.792 472.505 153.911 472.505C152.987 472.505 152.217 472.727 151.602 473.171C150.986 473.615 150.585 474.191 150.398 474.9C150.327 475.38 150.291 475.932 150.291 476.555V483H148.476ZM163.311 471.216V483H161.506V471.216H163.311ZM163.311 466.93V469.057H161.506V466.93H163.311ZM170.454 483.215C169.294 483.215 168.47 482.932 167.983 482.366C167.496 481.8 167.239 480.887 167.21 479.627V472.548H165.459L165.534 471.366L167.199 471.216L167.812 468.52L168.993 468.477V471.216H172.27V472.548H168.993V479.305C168.993 480.2 169.129 480.83 169.401 481.195C169.674 481.561 170.139 481.743 170.798 481.743C171.034 481.743 171.546 481.686 172.334 481.571L172.409 482.989C171.557 483.14 170.905 483.215 170.454 483.215ZM173.913 479.068V471.216H175.718V479.09C175.718 479.605 175.789 480.042 175.933 480.4C176.083 480.758 176.294 481.038 176.566 481.238C176.846 481.432 177.157 481.571 177.501 481.657C177.852 481.743 178.253 481.786 178.704 481.786C179.635 481.786 180.358 481.582 180.874 481.174C181.397 480.766 181.658 480.071 181.658 479.09V471.216H183.463V479.068C183.463 479.67 183.377 480.211 183.205 480.69C183.033 481.17 182.8 481.571 182.507 481.894C182.22 482.209 181.873 482.47 181.465 482.678C181.057 482.885 180.623 483.036 180.165 483.129C179.714 483.222 179.227 483.269 178.704 483.269C178.188 483.269 177.701 483.222 177.243 483.129C176.785 483.036 176.348 482.885 175.933 482.678C175.524 482.463 175.17 482.198 174.869 481.883C174.576 481.561 174.343 481.16 174.171 480.68C173.999 480.2 173.913 479.663 173.913 479.068ZM191.423 471.108C191.745 471.108 192.039 471.13 192.304 471.173L192.239 472.827C191.91 472.77 191.623 472.741 191.38 472.741C190.377 472.741 189.561 473.092 188.931 473.794C188.308 474.489 187.996 475.352 187.996 476.383V483H186.202C186.195 475.767 186.191 471.839 186.191 471.216H187.685L187.856 473.332C188.265 472.666 188.784 472.129 189.414 471.721C190.044 471.312 190.714 471.108 191.423 471.108ZM200.726 473.396C200.203 472.766 199.483 472.451 198.566 472.451C197.65 472.451 196.901 472.777 196.321 473.429C195.741 474.073 195.401 474.958 195.301 476.082H201.521C201.521 474.915 201.256 474.02 200.726 473.396ZM198.921 483.247C197.209 483.247 195.859 482.703 194.871 481.614C193.89 480.526 193.399 479.036 193.399 477.146C193.399 475.319 193.876 473.84 194.828 472.709C195.781 471.57 197.034 470.99 198.588 470.969C200.049 470.969 201.205 471.47 202.058 472.473C202.917 473.468 203.347 474.8 203.347 476.469C203.347 476.555 203.343 476.712 203.336 476.941C203.336 477.171 203.336 477.335 203.336 477.436H195.247C195.269 478.775 195.612 479.82 196.278 480.572C196.951 481.317 197.854 481.689 198.985 481.689C200.231 481.689 201.481 481.36 202.734 480.701L203.014 482.151C201.818 482.882 200.453 483.247 198.921 483.247Z" fill="white"/>
</svg>
